<svg width="19" height="19" viewBox="0 0 19 19" fill="none" xmlns="http://www.w3.org/2000/svg">
<path d="M8.52271 12.2519C8.31177 12.4628 7.92505 12.4628 7.71411 12.2519L5.46411 10.0019C5.25317 9.79095 5.25317 9.40424 5.46411 9.1933C5.67505 8.98236 6.06177 8.98236 6.27271 9.1933L8.13599 11.0566L12.2141 6.9433C12.425 6.73236 12.8118 6.73236 13.0227 6.9433C13.2336 7.15424 13.2336 7.54095 13.0227 7.75189L8.52271 12.2519ZM18.261 9.58002C18.261 14.5722 14.218 18.58 9.26099 18.58C4.2688 18.58 0.260986 14.5722 0.260986 9.58002C0.260986 4.62299 4.2688 0.580017 9.26099 0.580017C14.218 0.580017 18.261 4.62299 18.261 9.58002ZM9.26099 1.70502C4.90161 1.70502 1.38599 5.2558 1.38599 9.58002C1.38599 13.9394 4.90161 17.455 9.26099 17.455C13.5852 17.455 17.136 13.9394 17.136 9.58002C17.136 5.2558 13.5852 1.70502 9.26099 1.70502Z" fill="#383838"/>
</svg>
