<svg width="14" height="19" viewBox="0 0 14 19" fill="none" xmlns="http://www.w3.org/2000/svg">
<path d="M9.61816 7.33002C9.61816 8.91205 8.35254 10.1425 6.80566 10.1425C5.22363 10.1425 3.99316 8.91205 3.99316 7.33002C3.99316 5.78314 5.22363 4.51752 6.80566 4.51752C8.35254 4.51752 9.61816 5.78314 9.61816 7.33002ZM6.80566 9.01752C7.71973 9.01752 8.49316 8.27924 8.49316 7.33002C8.49316 6.41595 7.71973 5.64252 6.80566 5.64252C5.85645 5.64252 5.11816 6.41595 5.11816 7.33002C5.11816 8.27924 5.85645 9.01752 6.80566 9.01752ZM13.5557 7.33002C13.5557 10.4238 9.44238 15.873 7.61426 18.1581C7.19238 18.6855 6.38379 18.6855 5.96191 18.1581C4.13379 15.873 0.0556641 10.4238 0.0556641 7.33002C0.0556641 3.60345 3.04395 0.580017 6.80566 0.580017C10.5322 0.580017 13.5557 3.60345 13.5557 7.33002ZM6.80566 1.70502C3.67676 1.70502 1.18066 4.23627 1.18066 7.33002C1.18066 7.89252 1.35645 8.6308 1.74316 9.58002C2.12988 10.4941 2.65723 11.4785 3.29004 12.4628C4.48535 14.3964 5.8916 16.2597 6.80566 17.3847C7.68457 16.2597 9.09082 14.3964 10.2861 12.4628C10.9189 11.4785 11.4463 10.4941 11.833 9.58002C12.2197 8.6308 12.4307 7.89252 12.4307 7.33002C12.4307 4.23627 9.89941 1.70502 6.80566 1.70502Z" fill="#383838"/>
</svg>
