<svg xmlns="http://www.w3.org/2000/svg" width="20" height="20" viewBox="0 0 20 20">
  <g id="Group_2445" data-name="Group 2445" transform="translate(-21 -67)">
    <path id="Path_546" data-name="Path 546" d="M13.375,4.721a8.65,8.65,0,1,1-6.12,2.534,8.6,8.6,0,0,1,6.12-2.534m0-1.346a10,10,0,1,0,10,10,10,10,0,0,0-10-10Z" transform="translate(17.625 63.625)" fill="#21ad1e"/>
    <path id="Icon_material-local-parking" data-name="Icon material-local-parking" d="M12.321,4.5H9v8.539h1.9V10.193h1.423a2.846,2.846,0,1,0,0-5.693Zm.095,3.8H10.9V6.4h1.518a.949.949,0,1,1,0,1.9Z" transform="translate(19.833 69.269)" fill="#21ad1e"/>
  </g>
</svg>
