<svg width="19" height="19" viewBox="0 0 19 19" fill="none" xmlns="http://www.w3.org/2000/svg">
<path d="M17.3362 12.2167L13.7502 10.6699C13.1174 10.4238 12.344 10.5995 11.9221 11.162L10.7268 12.5683C8.89868 11.5488 7.35181 10.0019 6.33228 8.17377L7.77368 7.01361C8.30103 6.55658 8.47681 5.78314 8.19556 5.15033L6.68384 1.56439C6.36743 0.861267 5.59399 0.474548 4.85571 0.65033L1.55103 1.42377C0.812744 1.56439 0.320557 2.1972 0.320557 2.97064C0.320557 11.5839 7.31665 18.58 15.9299 18.58C16.7034 18.58 17.3362 18.0878 17.512 17.3495L18.2502 14.0449C18.426 13.3066 18.0393 12.5331 17.3362 12.2167ZM16.387 17.1035C16.3518 17.3144 16.176 17.4902 15.9299 17.4902C7.94946 17.4902 1.44556 10.9511 1.44556 2.97064C1.44556 2.72455 1.58618 2.54877 1.79712 2.51361L5.10181 1.74017C5.13696 1.74017 5.17212 1.70502 5.20728 1.70502C5.38306 1.70502 5.55884 1.84564 5.66431 2.02142L7.17603 5.5722C7.24634 5.78314 7.21118 5.99408 7.0354 6.1347L5.27759 7.57611C5.06665 7.75189 4.99634 8.03314 5.13696 8.27924C6.29712 10.6347 8.26587 12.6035 10.6565 13.7636C10.8674 13.9042 11.1487 13.8339 11.3245 13.623L12.7659 11.8652C12.9065 11.6894 13.1174 11.6542 13.3284 11.7245L16.8792 13.2363C17.0901 13.3417 17.2307 13.5527 17.1604 13.7988L16.387 17.1035Z" fill="#383838"/>
</svg>
