<svg width="16" height="15" viewBox="0 0 16 15" fill="none" xmlns="http://www.w3.org/2000/svg">
<path d="M15.6033 7.58002C15.6033 7.89642 15.322 8.14252 15.0408 8.14252H8.85327V14.33C8.85327 14.6464 8.57202 14.9277 8.29077 14.9277C7.97437 14.9277 7.72827 14.6464 7.72827 14.33V8.14252H1.54077C1.22437 8.14252 0.978271 7.89642 0.978271 7.61517C0.978271 7.29877 1.22437 7.01752 1.54077 7.01752H7.72827V0.830017C7.72827 0.548767 7.97437 0.302673 8.29077 0.302673C8.57202 0.302673 8.85327 0.548767 8.85327 0.830017V7.01752H15.0408C15.322 7.01752 15.6033 7.29877 15.6033 7.58002Z" fill="#333333"/>
</svg>
